<svg xmlns="http://www.w3.org/2000/svg" xmlns:xlink="http://www.w3.org/1999/xlink" width="131.775" height="119.123" viewBox="0 0 131.775 119.123">
  <defs>
    <radialGradient id="a" cx="65.888" cy="59.562" r="59.309" gradientUnits="userSpaceOnUse">
      <stop offset="0.084" stop-color="#d4ff02"/>
      <stop offset="1" stop-color="#aefc10"/>
    </radialGradient>
  </defs>
  <g>
    <g>
      <path d="M78.118,3.5c-5.1,0-8.154,2-12.23,8-4.077-6-7.135-8-12.231-8-7.135,0-14.269,4-14.269,18,0,23,23.442,41,26.5,41s26.5-18,26.5-41C92.388,7.5,85.253,3.5,78.118,3.5Z" fill="#6ccb20"/>
      <path d="M5.9,88.41c2.727,4.306,6.052,5.82,13.3,6.054-2.888,6.655-2.942,10.308-.216,14.614C22.8,115.106,30,118.994,41.826,111.5c19.433-12.3,22.1-41.738,20.465-44.322s-29.384-12.76-48.817-.457C1.646,74.215,2.083,82.382,5.9,88.41Z" fill="#6ccb20"/>
      <path d="M125.876,88.41c-2.727,4.306-6.052,5.82-13.3,6.054,2.888,6.655,2.942,10.308.216,14.614-3.817,6.028-11.013,9.916-22.841,2.426-19.433-12.3-22.1-41.738-20.465-44.322s29.384-12.76,48.817-.457C130.129,74.215,129.692,82.382,125.876,88.41Z" fill="#6ccb20"/>
    </g>
    <g>
      <path d="M78.118,3.5c-5.1,0-8.154,2-12.23,8-4.077-6-7.135-8-12.231-8-7.135,0-14.269,4-14.269,18,0,23,23.442,41,26.5,41s26.5-18,26.5-41C92.388,7.5,85.253,3.5,78.118,3.5Z" fill="none" stroke="#fff" stroke-miterlimit="6" stroke-width="7"/>
      <path d="M5.9,88.41c2.727,4.306,6.052,5.82,13.3,6.054-2.888,6.655-2.942,10.308-.216,14.614C22.8,115.106,30,118.994,41.826,111.5c19.433-12.3,22.1-41.738,20.465-44.322s-29.384-12.76-48.817-.457C1.646,74.215,2.083,82.382,5.9,88.41Z" fill="none" stroke="#fff" stroke-miterlimit="6" stroke-width="7"/>
      <path d="M125.876,88.41c-2.727,4.306-6.052,5.82-13.3,6.054,2.888,6.655,2.942,10.308.216,14.614-3.817,6.028-11.013,9.916-22.841,2.426-19.433-12.3-22.1-41.738-20.465-44.322s29.384-12.76,48.817-.457C130.129,74.215,129.692,82.382,125.876,88.41Z" fill="none" stroke="#fff" stroke-miterlimit="6" stroke-width="7"/>
    </g>
    <g>
      <path d="M78.118,3.5c-5.1,0-8.154,2-12.23,8-4.077-6-7.135-8-12.231-8-7.135,0-14.269,4-14.269,18,0,23,23.442,41,26.5,41s26.5-18,26.5-41C92.388,7.5,85.253,3.5,78.118,3.5Z" fill="url(#a)"/>
      <path d="M5.9,88.41c2.727,4.306,6.052,5.82,13.3,6.054-2.888,6.655-2.942,10.308-.216,14.614C22.8,115.106,30,118.994,41.826,111.5c19.433-12.3,22.1-41.738,20.465-44.322s-29.384-12.76-48.817-.457C1.646,74.215,2.083,82.382,5.9,88.41Z" fill="url(#a)"/>
      <path d="M125.876,88.41c-2.727,4.306-6.052,5.82-13.3,6.054,2.888,6.655,2.942,10.308.216,14.614-3.817,6.028-11.013,9.916-22.841,2.426-19.433-12.3-22.1-41.738-20.465-44.322s29.384-12.76,48.817-.457C130.129,74.215,129.692,82.382,125.876,88.41Z" fill="url(#a)"/>
    </g>
  </g>
</svg>
